<svg width="512" height="512" viewBox="0 0 512 512" fill="none" xmlns="http://www.w3.org/2000/svg">
<rect width="512" height="512" fill="black"/>
<path d="M255.513 231.75C238.72 231.75 226.612 242.716 226.612 259.165C226.612 275.615 240.241 286.581 257.034 286.581C267.18 286.581 276.124 282.56 281.661 275.782L270.025 269.05C266.952 272.416 262.282 274.381 257.034 274.381C249.748 274.381 243.557 270.573 241.26 264.481H283.882C284.217 262.775 284.415 261.008 284.415 259.15C284.415 242.716 272.306 231.75 255.513 231.75ZM241.123 253.835C243.025 247.758 248.227 243.935 255.498 243.935C262.784 243.935 267.986 247.758 269.873 253.835H241.123ZM419.308 231.75C402.515 231.75 390.407 242.716 390.407 259.165C390.407 275.615 404.036 286.581 420.829 286.581C430.975 286.581 439.919 282.56 445.456 275.782L433.82 269.05C430.747 272.416 426.077 274.381 420.829 274.381C413.543 274.381 407.352 270.573 405.055 264.481H447.677C448.012 262.775 448.21 261.008 448.21 259.15C448.21 242.716 436.101 231.75 419.308 231.75ZM404.934 253.835C406.835 247.758 412.037 243.935 419.308 243.935C426.594 243.935 431.797 247.758 433.683 253.835H404.934ZM345.564 259.165C345.564 268.304 351.527 274.396 360.775 274.396C367.042 274.396 371.743 271.548 374.161 266.903L385.843 273.65C381.006 281.722 371.94 286.581 360.775 286.581C343.967 286.581 331.874 275.615 331.874 259.165C331.874 242.716 343.982 231.75 360.775 231.75C371.94 231.75 380.991 236.609 385.843 244.681L374.161 251.428C371.743 246.783 367.042 243.935 360.775 243.935C351.542 243.935 345.564 250.027 345.564 259.165ZM471.026 214.996V285.058H457.336V214.996H471.026ZM97.1791 207.381L153.385 304.858H40.9735L97.1791 207.381ZM237.701 214.996L195.55 288.104L153.4 214.996H169.204L195.55 260.688L221.896 214.996H237.701ZM327.31 233.273V248.032C325.789 247.59 324.177 247.285 322.443 247.285C313.605 247.285 307.232 253.378 307.232 262.516V285.058H293.541V233.273H307.232V247.285C307.232 239.548 316.221 233.273 327.31 233.273Z" fill="white"/>
</svg>
